<svg width="28" height="28" viewBox="0 0 28 28" fill="none" xmlns="http://www.w3.org/2000/svg">
<circle cx="14" cy="14" r="14" fill="#D9D9D9"/>
<g clip-path="url(#clip0_77_1023)">
<path d="M17.1819 6.00801C17.1479 5.97001 15.9229 6.02301 14.8569 7.18001C13.7909 8.33601 13.9549 9.66201 13.9789 9.69601C14.0029 9.73001 15.4989 9.78301 16.4539 8.43801C17.4089 7.09301 17.2159 6.04701 17.1819 6.00801ZM20.4959 17.741C20.4479 17.645 18.1709 16.507 18.3829 14.319C18.5949 12.13 20.0579 11.53 20.0809 11.465C20.1039 11.4 19.4839 10.675 18.8269 10.308C18.3445 10.0493 17.8107 9.90102 17.2639 9.87401C17.1559 9.87101 16.7809 9.77901 16.0099 9.99001C15.5019 10.129 14.3569 10.579 14.0419 10.597C13.7259 10.615 12.7859 10.075 11.7749 9.93201C11.1279 9.80701 10.4419 10.063 9.95093 10.26C9.46093 10.456 8.52893 11.014 7.87693 12.497C7.22493 13.979 7.56593 16.327 7.80993 17.057C8.05393 17.786 8.43493 18.981 9.08293 19.853C9.65893 20.837 10.4229 21.52 10.7419 21.752C11.0609 21.984 11.9609 22.138 12.5849 21.819C13.0869 21.511 13.9929 21.334 14.3509 21.347C14.7079 21.36 15.4119 21.501 16.1329 21.886C16.7039 22.083 17.2439 22.001 17.7849 21.781C18.3259 21.56 19.1089 20.722 20.0229 19.023C20.3699 18.233 20.5279 17.806 20.4959 17.741Z" fill="black"/>
<path d="M17.1819 6.00801C17.1479 5.97001 15.9229 6.02301 14.8569 7.18001C13.7909 8.33601 13.9549 9.66201 13.9789 9.69601C14.0029 9.73001 15.4989 9.78301 16.4539 8.43801C17.4089 7.09301 17.2159 6.04701 17.1819 6.00801ZM20.4959 17.741C20.4479 17.645 18.1709 16.507 18.3829 14.319C18.5949 12.13 20.0579 11.53 20.0809 11.465C20.1039 11.4 19.4839 10.675 18.8269 10.308C18.3445 10.0493 17.8107 9.90102 17.2639 9.87401C17.1559 9.87101 16.7809 9.77901 16.0099 9.99001C15.5019 10.129 14.3569 10.579 14.0419 10.597C13.7259 10.615 12.7859 10.075 11.7749 9.93201C11.1279 9.80701 10.4419 10.063 9.95093 10.26C9.46093 10.456 8.52893 11.014 7.87693 12.497C7.22493 13.979 7.56593 16.327 7.80993 17.057C8.05393 17.786 8.43493 18.981 9.08293 19.853C9.65893 20.837 10.4229 21.52 10.7419 21.752C11.0609 21.984 11.9609 22.138 12.5849 21.819C13.0869 21.511 13.9929 21.334 14.3509 21.347C14.7079 21.36 15.4119 21.501 16.1329 21.886C16.7039 22.083 17.2439 22.001 17.7849 21.781C18.3259 21.56 19.1089 20.722 20.0229 19.023C20.3699 18.233 20.5279 17.806 20.4959 17.741Z" fill="black"/>
</g>
<defs>
<clipPath id="clip0_77_1023">
<rect width="16" height="16" fill="white" transform="translate(6 6)"/>
</clipPath>
</defs>
</svg>
