<svg width="21" height="21" viewBox="0 0 21 21" fill="none" xmlns="http://www.w3.org/2000/svg">
<path d="M11.75 16.75H16.75V18H11.75V16.75ZM11.75 14.25H19.25V15.5H11.75V14.25ZM11.75 11.75H19.25V13H11.75V11.75Z" fill="#FAFAF9"/>
<path d="M13.3432 7.51062L10.5 1.75L7.65692 7.51062L1.30005 8.43437L5.90005 12.9188L4.8138 19.25L9.25005 16.9181V15.5056L6.47442 16.965L7.13192 13.13L7.24317 12.4819L6.77255 12.0238L3.9863 9.30687L7.83692 8.7475L8.48692 8.65312L8.77817 8.06375L10.5 4.57438L12.2219 8.06375L12.5132 8.65312L13.1632 8.7475L17.8219 9.42562L18 8.1875L13.3432 7.51062Z" fill="#FAFAF9"/>
</svg>
