<svg width="312" height="36" viewBox="0 0 312 36" fill="none" xmlns="http://www.w3.org/2000/svg">
<path d="M3 30H309" stroke="url(#paint0_linear_80_460)" stroke-width="5" stroke-linecap="round"/>
<circle cx="177" cy="30" r="6" fill="#7D1002"/>
<path d="M164.992 18.176C162.325 18.176 160.992 16.336 160.992 12.656C160.992 10.6827 161.36 9.216 162.096 8.256C162.843 7.28533 163.92 6.8 165.328 6.8C166.416 6.8 167.371 7.072 168.192 7.616L167.68 8.496C167.328 8.28267 166.965 8.128 166.592 8.032C166.229 7.92533 165.824 7.872 165.376 7.872C164.299 7.872 163.488 8.24533 162.944 8.992C162.411 9.728 162.144 10.9173 162.144 12.56C162.389 12.0053 162.773 11.5733 163.296 11.264C163.819 10.9547 164.432 10.8 165.136 10.8C166.267 10.8 167.152 11.1307 167.792 11.792C168.432 12.4533 168.752 13.3227 168.752 14.4C168.752 15.168 168.597 15.8347 168.288 16.4C167.979 16.9653 167.541 17.4027 166.976 17.712C166.411 18.0213 165.749 18.176 164.992 18.176ZM164.96 17.104C165.749 17.104 166.373 16.8747 166.832 16.416C167.301 15.9467 167.536 15.3067 167.536 14.496C167.536 13.664 167.307 13.0187 166.848 12.56C166.4 12.1013 165.776 11.872 164.976 11.872C164.187 11.872 163.557 12.1067 163.088 12.576C162.629 13.0453 162.4 13.6853 162.4 14.496C162.4 15.3067 162.629 15.9467 163.088 16.416C163.557 16.8747 164.181 17.104 164.96 17.104ZM174.495 18.192C173.631 18.192 172.89 17.9627 172.271 17.504C171.663 17.0347 171.194 16.3733 170.863 15.52C170.532 14.6667 170.367 13.6587 170.367 12.496C170.367 11.3227 170.532 10.3093 170.863 9.456C171.194 8.60267 171.663 7.94667 172.271 7.488C172.89 7.02933 173.631 6.8 174.495 6.8C175.359 6.8 176.095 7.02933 176.703 7.488C177.322 7.94667 177.796 8.60267 178.127 9.456C178.458 10.2987 178.623 11.3067 178.623 12.48C178.623 13.6533 178.458 14.6667 178.127 15.52C177.796 16.3733 177.322 17.0347 176.703 17.504C176.095 17.9627 175.359 18.192 174.495 18.192ZM174.495 17.12C175.423 17.12 176.143 16.7093 176.655 15.888C177.167 15.0667 177.423 13.9307 177.423 12.48C177.423 11.04 177.167 9.91467 176.655 9.104C176.143 8.28267 175.423 7.872 174.495 7.872C173.567 7.872 172.847 8.28267 172.335 9.104C171.823 9.91467 171.567 11.0453 171.567 12.496C171.567 13.936 171.823 15.0667 172.335 15.888C172.847 16.7093 173.567 17.12 174.495 17.12ZM182.441 18L189.209 6.992H190.473L183.705 18H182.441ZM190.185 18.112C189.684 18.112 189.231 18 188.825 17.776C188.431 17.5413 188.121 17.2213 187.897 16.816C187.673 16.4107 187.561 15.952 187.561 15.44C187.561 14.9173 187.673 14.4587 187.897 14.064C188.121 13.6587 188.431 13.344 188.825 13.12C189.231 12.8853 189.684 12.768 190.185 12.768C190.697 12.768 191.151 12.8853 191.545 13.12C191.94 13.344 192.249 13.6587 192.473 14.064C192.697 14.4587 192.809 14.9173 192.809 15.44C192.809 15.952 192.697 16.4107 192.473 16.816C192.249 17.2213 191.94 17.5413 191.545 17.776C191.151 18 190.697 18.112 190.185 18.112ZM190.185 17.168C190.655 17.168 191.033 17.008 191.321 16.688C191.62 16.368 191.769 15.952 191.769 15.44C191.769 14.928 191.62 14.512 191.321 14.192C191.033 13.872 190.655 13.712 190.185 13.712C189.716 13.712 189.332 13.872 189.033 14.192C188.745 14.512 188.601 14.928 188.601 15.44C188.601 15.952 188.745 16.368 189.033 16.688C189.332 17.008 189.716 17.168 190.185 17.168ZM182.729 12.224C182.228 12.224 181.775 12.112 181.369 11.888C180.975 11.6533 180.665 11.3333 180.441 10.928C180.217 10.5227 180.105 10.064 180.105 9.552C180.105 9.02933 180.217 8.57067 180.441 8.176C180.665 7.77067 180.975 7.456 181.369 7.232C181.775 6.99733 182.228 6.88 182.729 6.88C183.241 6.88 183.695 6.99733 184.089 7.232C184.484 7.456 184.793 7.77067 185.017 8.176C185.241 8.57067 185.353 9.02933 185.353 9.552C185.353 10.064 185.241 10.5227 185.017 10.928C184.793 11.3333 184.484 11.6533 184.089 11.888C183.695 12.112 183.241 12.224 182.729 12.224ZM182.729 11.28C183.199 11.28 183.577 11.12 183.865 10.8C184.164 10.48 184.313 10.064 184.313 9.552C184.313 9.04 184.164 8.624 183.865 8.304C183.577 7.984 183.199 7.824 182.729 7.824C182.26 7.824 181.876 7.984 181.577 8.304C181.289 8.624 181.145 9.04 181.145 9.552C181.145 10.064 181.289 10.48 181.577 10.8C181.876 11.12 182.26 11.28 182.729 11.28Z" fill="#7D1002"/>
<defs>
<linearGradient id="paint0_linear_80_460" x1="313.781" y1="29.9998" x2="3" y2="30" gradientUnits="userSpaceOnUse">
<stop stop-color="#FF0000"/>
<stop offset="1" stop-color="#FCD0D1"/>
</linearGradient>
</defs>
</svg>
