<svg width="29" height="29" viewBox="0 0 29 29" fill="none" xmlns="http://www.w3.org/2000/svg">
<g clip-path="url(#clip0_77_520)">
<path d="M15.9584 6.37989C15.8316 6.35693 15.2189 6.25423 14.5 6.25423C13.781 6.25423 13.1684 6.35693 13.0415 6.37989C12.969 6.39198 12.94 6.32189 12.9956 6.2796C13.0464 6.24335 14.5 5.13652 14.5 5.13652L16.0032 6.2796C16.0599 6.32189 16.0322 6.39318 15.9584 6.37989ZM13.4475 13.5634C13.4475 13.5634 13.3702 13.5912 13.3509 13.6589C13.6554 13.8921 13.8644 14.425 14.5 14.425C15.1356 14.425 15.3458 13.8933 15.6491 13.6577C15.6298 13.59 15.5524 13.5634 15.5524 13.5634C15.5524 13.5634 15.1537 13.6565 14.5 13.6565C13.8451 13.6565 13.4475 13.5634 13.4475 13.5634ZM14.5 12.6669C14.3236 12.6669 14.2849 12.6004 14.1641 12.6004C14.0505 12.6004 13.8269 12.6922 13.7786 12.7768C13.7817 12.8198 13.7997 12.8604 13.8294 12.8916C14.0855 12.9291 14.2027 13.0729 14.5 13.0729C14.7984 13.0729 14.9144 12.9291 15.1718 12.8916C15.2008 12.86 15.2182 12.8195 15.2214 12.7768C15.173 12.6922 14.9507 12.6016 14.8359 12.6004C14.7151 12.6004 14.6764 12.6669 14.5 12.6669ZM28.9843 15.4098C28.966 15.7543 28.9353 16.0981 28.8924 16.4405C27.2491 16.7124 26.6631 15.2491 24.9811 15.3228C25.0814 15.6792 25.1623 16.0429 25.2264 16.4139C26.6135 16.4139 27.1718 17.7104 28.716 17.5195C28.6351 17.9159 28.5372 18.3074 28.4236 18.6916C27.2032 18.8124 26.7742 17.5993 25.3617 17.6331C25.3738 17.8337 25.3798 18.0367 25.3798 18.2421L25.3738 18.5804L28.1167 19.6269C27.9732 20.0153 27.8131 20.3975 27.637 20.7724C26.8129 20.7276 26.5289 19.6704 25.2747 19.7537C25.2371 20.0232 25.1896 20.2913 25.1321 20.5573C26.2208 20.4811 26.4552 21.4841 27.2346 21.565C27.036 21.927 26.8224 22.2806 26.5942 22.6247C26.1326 22.377 25.7314 21.6303 24.8542 21.5844C24.945 21.3059 25.024 21.0237 25.091 20.7385C24.3129 20.7385 23.4235 20.4364 22.6792 19.7574C22.9209 18.3799 20.7845 16.9794 20.7845 15.9716C20.7845 14.8769 21.3379 14.2715 21.3379 12.7961C21.3379 11.7002 20.8063 10.5124 20.0039 9.70039C19.8549 9.5482 19.6881 9.41434 19.5073 9.30164C20.2444 10.2127 20.8099 11.2942 20.8099 12.546C20.8099 13.9356 20.1634 14.6691 20.1634 15.9523C20.1634 17.2344 22.04 18.3448 22.04 19.6667C22.04 20.1863 21.8732 20.6938 21.3247 21.6931C22.1669 22.5341 23.264 22.9933 23.9709 22.9933C24.2005 22.9933 24.3249 22.9232 24.4071 22.7431C24.4781 22.5873 24.5453 22.4297 24.6089 22.2707C25.3702 22.2997 25.7206 22.9921 26.1423 23.2688C25.9103 23.5805 25.6674 23.8802 25.4124 24.1702C25.1297 23.8572 24.7491 23.3304 24.192 23.1842C24.0929 23.3777 23.9881 23.5683 23.8779 23.7557C24.3564 23.8862 24.6838 24.3696 24.9376 24.6874C24.6639 24.971 24.3789 25.2435 24.0833 25.5042C23.8984 25.2154 23.6096 24.8505 23.2858 24.6535C23.1668 24.8142 23.0431 24.9714 22.9148 25.1248C23.1891 25.3121 23.432 25.6468 23.5903 25.9199C23.2483 26.1941 22.8943 26.4551 22.5269 26.6992C22.3457 25.2251 20.335 24.2161 20.8776 22.5063C20.6999 22.8084 20.4873 23.1842 20.4873 23.6385C20.4873 24.8759 21.8044 25.857 21.9107 27.0871C21.6376 27.2502 21.3573 27.4037 21.0733 27.5499C21.025 26.1978 19.6306 24.7188 19.6306 23.6107C19.6306 22.3722 21.2522 21.1276 21.2522 19.6667C21.2522 18.2046 19.3804 17.1909 19.3804 15.9076C19.3804 14.6244 20.1767 13.8861 20.1767 12.2403C20.1767 11.0356 19.604 9.81639 18.7195 9.03823C18.5695 8.90269 18.4031 8.78658 18.2241 8.69264C19.0578 9.69314 19.5412 10.6018 19.5412 11.9781C19.5412 13.5248 18.6289 14.3827 18.6289 15.8979C18.6289 17.4132 20.4655 18.2542 20.4655 19.6679C20.4655 21.0793 18.7557 22.2683 18.7557 23.7195C18.7557 25.039 20.2625 26.3561 20.2855 27.9209C19.9551 28.0649 19.6193 28.1963 19.2789 28.3148C19.4711 26.7331 17.7746 25.1018 17.7746 23.8113C17.7746 22.4012 19.5472 21.188 19.5472 19.6667C19.5472 18.1442 17.7456 17.4374 17.7456 15.875C17.7456 14.3138 18.8512 13.4499 18.8512 11.7244C18.8476 11.0858 18.6986 10.4564 18.4156 9.88405C18.1325 9.31165 17.7228 8.81124 17.2175 8.42077L17.1559 8.37485C17.0641 8.30718 16.9892 8.38814 17.0544 8.4691C17.7407 9.32702 18.1081 10.1934 18.1081 11.4779C18.1081 13.0547 16.8369 14.3368 16.8369 15.8665C16.8369 17.6706 18.5431 18.1865 18.5431 19.6667C18.5431 21.1469 16.7137 22.3311 16.7137 23.9019C16.7137 25.3592 18.4452 26.9771 18.1479 28.6591C17.799 28.75 17.4467 28.8273 17.0919 28.8911C17.4169 26.7971 15.718 25.2927 15.718 23.9225C15.718 22.4386 17.6127 21.1167 17.6127 19.6667C17.6127 18.3001 16.2533 17.853 16.0744 16.4538C16.0503 16.2629 15.8968 16.1215 15.6854 16.1565C15.4087 16.2073 15.0546 16.3885 14.4988 16.3885C13.9429 16.3885 13.5889 16.2073 13.3122 16.1565C13.1019 16.1215 12.9485 16.2629 12.9243 16.4538C12.7455 17.853 11.3849 18.2989 11.3849 19.6679C11.3849 21.1167 13.2796 22.4386 13.2796 23.9213C13.2796 25.2927 11.5819 26.7971 11.9057 28.8911C11.5509 28.8268 11.1987 28.7494 10.8496 28.6591C10.5524 26.9771 12.2839 25.3604 12.2839 23.9019C12.2839 22.3311 10.4545 21.1469 10.4545 19.6667C10.4545 18.1865 12.1607 17.6706 12.1607 15.8665C12.1607 14.3368 10.8895 13.0559 10.8895 11.4766C10.8895 10.1934 11.2568 9.32581 11.9444 8.46789C12.0084 8.38814 11.9335 8.30718 11.8417 8.37485L11.7812 8.42077C11.2762 8.81086 10.8668 9.31089 10.5839 9.88289C10.301 10.4549 10.1522 11.0838 10.1488 11.7219C10.1488 13.4474 11.2544 14.3114 11.2544 15.8738C11.2544 17.4349 9.45157 18.143 9.45157 19.6655C9.45157 21.1856 11.2242 22.3988 11.2242 23.8101C11.2242 25.1006 9.5289 26.7319 9.72103 28.3136C9.3807 28.1949 9.04495 28.0635 8.71449 27.9196C8.73745 26.3536 10.243 25.0366 10.243 23.7171C10.243 22.2671 8.53445 21.0769 8.53445 19.6655C8.53445 18.253 10.3699 17.4108 10.3699 15.8955C10.3699 14.3815 9.45882 13.5224 9.45882 11.9757C9.45882 10.5982 9.94216 9.69193 10.7759 8.69143C10.5966 8.78441 10.4301 8.90016 10.2805 9.03581C9.82991 9.4402 9.46785 9.93343 9.21706 10.4845C8.96628 11.0355 8.8322 11.6325 8.82324 12.2379C8.82324 13.8836 9.61953 14.6219 9.61953 15.9052C9.61953 17.1896 7.74782 18.201 7.74782 19.6643C7.74782 21.1264 9.3694 22.371 9.3694 23.6083C9.3694 24.7176 7.97378 26.1966 7.92665 27.5475C7.64246 27.4026 7.36318 27.2482 7.08928 27.0847C7.1944 25.8558 8.5127 24.8734 8.5127 23.6361C8.5127 23.183 8.30003 22.806 8.12241 22.5051C8.66374 24.2137 6.65307 25.2239 6.47182 26.6968C6.10586 26.4531 5.75105 26.1931 5.40849 25.9174C5.56678 25.6456 5.80965 25.3096 6.08515 25.1236C5.95617 24.97 5.83206 24.8125 5.71299 24.6511C5.38915 24.8481 5.10036 25.2142 4.91549 25.5018C4.61998 25.2414 4.33499 24.9693 4.0612 24.6861C4.31495 24.3671 4.64361 23.8838 5.12211 23.7533C5.01132 23.566 4.90615 23.3754 4.80674 23.1818C4.2509 23.3292 3.86907 23.856 3.58632 24.169C3.33167 23.8782 3.0886 23.5775 2.8577 23.2676C3.28061 22.9896 3.62861 22.2973 4.39107 22.2683C4.45511 22.4266 4.52157 22.5849 4.59286 22.7395C4.67503 22.9208 4.79828 22.9909 5.02786 22.9909C5.73595 22.9909 6.8319 22.5317 7.67411 21.6907C7.12674 20.6926 6.9612 20.1851 6.9612 19.6643C6.9612 18.3424 8.83653 17.2331 8.83653 15.9499C8.83653 14.6679 8.19007 13.9344 8.19007 12.5448C8.19007 11.2918 8.75557 10.2115 9.49265 9.29923C9.31142 9.41184 9.14429 9.54571 8.99482 9.69798C8.1937 10.5124 7.66082 11.7002 7.66082 12.7949C7.66082 14.2703 8.21545 14.8769 8.21545 15.9716C8.21545 16.9794 6.07911 18.3799 6.32078 19.7561C5.57524 20.4352 4.6859 20.7385 3.90774 20.7385C3.97524 21.0234 4.05384 21.3056 4.14336 21.5844C3.26732 21.6303 2.86736 22.377 2.40336 22.6235C2.17504 22.2799 1.96137 21.9267 1.76295 21.565C2.54353 21.4829 2.77795 20.4811 3.86786 20.5573C3.81044 20.2913 3.76288 20.0232 3.72528 19.7537C2.47103 19.6691 2.18586 20.7276 1.36178 20.7724C1.18605 20.3975 1.02641 20.0153 0.883279 19.6269L3.62499 18.5792L3.61895 18.2409C3.61895 18.0355 3.62499 17.8325 3.63586 17.6307C2.22453 17.5981 1.79436 18.81 0.573946 18.6904C0.460783 18.3039 0.363631 17.9128 0.282738 17.5183C1.82457 17.708 2.38524 16.4115 3.7724 16.4127C3.83442 16.0445 3.91589 15.6799 4.01649 15.3204C2.33449 15.2479 1.74724 16.7099 0.106321 16.4381C0.0632089 16.0961 0.0325774 15.7527 0.0144876 15.4086C1.92365 15.6212 2.63778 14.0528 4.37657 14.2449C4.53939 13.8314 4.7291 13.429 4.94449 13.0402C2.76586 12.6572 2.02636 14.4794 -0.0012207 14.2002C0.218696 6.37989 6.62649 0.108643 14.5 0.108643C22.3735 0.108643 28.7813 6.37989 29 14.2014C26.9712 14.4818 26.2329 12.6596 24.0543 13.0414C24.2682 13.4281 24.4591 13.8317 24.6222 14.2461C26.3598 14.054 27.0751 15.6236 28.9843 15.4098ZM8.26499 9.32581C7.19682 8.8896 5.9039 8.98989 4.79949 9.70039C4.6279 8.6721 4.07086 7.7586 3.27699 7.20881C3.16703 7.13268 3.05345 7.20398 3.06311 7.33206C3.23107 9.50223 1.96111 11.3872 0.401154 13.0451C2.00945 13.5284 3.37849 11.4573 5.46407 12.1799C6.21405 11.0642 7.16361 10.0966 8.26499 9.32581ZM14.5 8.01235C13.1539 8.01235 12.0253 8.7736 11.7305 9.75839C11.7063 9.83331 11.7377 9.88285 11.8247 9.84298C12.0664 9.73423 12.3431 9.68227 12.6428 9.68227C13.1914 9.68227 13.6759 9.88406 13.9623 10.2345C14.0879 10.6526 14.0988 11.2579 13.9562 11.6023C13.7303 11.5516 13.6481 11.3776 13.427 11.3776C13.2071 11.3776 13.0355 11.5322 12.6609 11.5322C12.2863 11.5322 12.2428 11.3558 11.9963 11.3558C11.7063 11.3558 11.6532 11.6543 11.6532 11.9902C11.6532 13.4909 13.0331 15.5548 14.5 15.5548C15.9657 15.5548 17.3444 13.4909 17.3444 11.9902C17.3444 11.6531 17.2755 11.3655 16.9734 11.3256C16.7952 11.4722 16.5682 11.546 16.3379 11.5322C15.9633 11.5322 15.8606 11.3776 15.6394 11.3776C15.3736 11.3776 15.4002 11.9394 15.0836 11.9696C14.8722 11.4634 14.8625 10.8133 15.0377 10.2345C15.3241 9.88406 15.8074 9.68227 16.3572 9.68227C16.6569 9.68227 16.9336 9.73543 17.174 9.84298C17.261 9.88285 17.2912 9.83331 17.2695 9.75839C16.9747 8.77481 15.8461 8.01235 14.5 8.01235ZM16.6436 10.1656C16.3209 10.1656 15.9427 10.2647 15.7047 10.5293C15.6789 10.6117 15.6823 10.7005 15.7144 10.7806C16.3004 10.5801 16.8164 10.5716 17.0665 10.8507C17.1994 10.7299 17.2417 10.6211 17.2417 10.4955C17.2417 10.3009 17.0435 10.1656 16.6436 10.1656ZM11.9335 10.8507C12.2162 10.568 12.8119 10.5801 13.4294 10.8084C13.4572 10.5015 12.9062 10.1644 12.3564 10.1644C11.9564 10.1644 11.7583 10.2997 11.7583 10.4955C11.7583 10.6211 11.8006 10.7311 11.9335 10.8507ZM21.2135 5.7721C20.1502 5.84823 19.2282 6.21314 18.4802 6.82093C18.7843 5.95563 19.1981 5.13289 19.7115 4.37285C18.3582 4.51664 17.226 5.01206 16.4007 5.85789L15.753 4.1626L17.1885 2.89627L15.2673 2.75973L14.5 0.972601L13.7327 2.76093L11.8114 2.89627L13.2457 4.16381L12.6005 5.85789C11.774 5.01206 10.643 4.51664 9.28965 4.37285C9.80167 5.13333 10.2146 5.95599 10.5185 6.82093C9.77178 6.21314 8.84861 5.84823 7.78528 5.7721C8.42328 6.59256 8.98878 7.46618 9.40686 8.40627C9.4552 8.5126 9.5567 8.54764 9.66545 8.49206C11.1673 7.74595 12.8218 7.35878 14.4988 7.36106C16.2364 7.36106 17.8761 7.76948 19.3333 8.49206C19.4433 8.54764 19.5448 8.5126 19.5919 8.40748C20.0112 7.46618 20.5767 6.59256 21.2147 5.77331L21.2135 5.7721ZM23.5359 12.1811C25.6215 11.4585 26.9917 13.5284 28.5988 13.0463C27.0389 11.3884 25.7701 9.50343 25.9381 7.33206C25.9477 7.20518 25.8329 7.13268 25.7242 7.20881C24.9303 7.75981 24.3721 8.67331 24.2017 9.70039C23.0973 8.9911 21.8044 8.89081 20.7362 9.32702C21.837 10.0981 22.7861 11.0657 23.5359 12.1811Z" fill="black"/>
</g>
<defs>
<clipPath id="clip0_77_520">
<rect width="29" height="29" fill="white"/>
</clipPath>
</defs>
</svg>
