<svg width="300" height="300" viewBox="0 0 300 300" fill="none" xmlns="http://www.w3.org/2000/svg">
<path d="M101.222 108.556C101.222 64.6666 118.833 25.5555 140.667 16.6666C130.945 34.9444 128.111 81.1111 128.111 108.278V108.667C126.447 110.604 124.385 112.159 122.064 113.225C119.744 114.29 117.22 114.842 114.667 114.842C112.113 114.842 109.59 114.29 107.269 113.225C104.949 112.159 102.886 110.604 101.222 108.667V108.556ZM136.278 108.556C137.951 110.572 140.048 112.194 142.42 113.308C144.792 114.422 147.38 114.999 150 114.999C152.62 114.999 155.208 114.422 157.58 113.308C159.952 112.194 162.049 110.572 163.722 108.556C163.722 53.8889 154.945 20.7777 150 17.4444C145.056 20.8333 136.278 53.8889 136.278 108.556ZM171.889 108.889C173.564 110.793 175.623 112.322 177.93 113.375C180.238 114.429 182.742 114.982 185.278 115C187.848 114.974 190.383 114.407 192.719 113.334C195.055 112.262 197.138 110.71 198.833 108.778C198.833 64.8888 181.167 25.7777 159.333 16.8888C169.056 35.1666 171.889 81.3333 171.889 108.5V108.889ZM238.556 98.2777V98.7222C238.17 102.886 236.314 106.777 233.322 109.699C230.329 112.62 226.395 114.381 222.222 114.667L171.389 183.333C172.808 184.44 173.956 185.856 174.745 187.473C175.535 189.091 175.945 190.867 175.944 192.667V232.444C176.019 233.157 175.943 233.877 175.722 234.558C175.5 235.238 175.138 235.865 174.659 236.397C174.179 236.929 173.594 237.355 172.94 237.646C172.285 237.937 171.577 238.088 170.861 238.088C170.145 238.088 169.437 237.937 168.783 237.646C168.129 237.355 167.543 236.929 167.064 236.397C166.584 235.865 166.222 235.238 166.001 234.558C165.779 233.877 165.703 233.157 165.778 232.444V199.111H164.111V239.333V276.889C164.194 277.782 164.09 278.682 163.806 279.532C163.521 280.383 163.062 281.164 162.458 281.827C161.854 282.49 161.119 283.019 160.298 283.382C159.478 283.744 158.591 283.931 157.694 283.931C156.798 283.931 155.911 283.744 155.091 283.382C154.271 283.019 153.535 282.49 152.931 281.827C152.327 281.164 151.868 280.383 151.583 279.532C151.299 278.682 151.195 277.782 151.278 276.889V239.333H149V276.889C149.083 277.782 148.979 278.682 148.695 279.532C148.41 280.383 147.951 281.164 147.347 281.827C146.743 282.49 146.007 283.019 145.187 283.382C144.367 283.744 143.48 283.931 142.583 283.931C141.687 283.931 140.8 283.744 139.98 283.382C139.159 283.019 138.424 282.49 137.82 281.827C137.216 281.164 136.757 280.383 136.472 279.532C136.188 278.682 136.084 277.782 136.167 276.889V235.056V199.111H134.5V232.444C134.575 233.157 134.499 233.877 134.277 234.558C134.056 235.238 133.694 235.865 133.214 236.397C132.735 236.929 132.149 237.355 131.495 237.646C130.841 237.937 130.133 238.088 129.417 238.088C128.701 238.088 127.993 237.937 127.338 237.646C126.684 237.355 126.098 236.929 125.619 236.397C125.14 235.865 124.778 235.238 124.556 234.558C124.335 233.877 124.259 233.157 124.333 232.444V192.556C124.378 190.751 124.838 188.98 125.676 187.381C126.514 185.782 127.708 184.397 129.167 183.333L77.3889 114.611C73.3157 114.169 69.5253 112.317 66.6743 109.374C63.8232 106.432 62.091 102.585 61.7778 98.5V97.8333C62.1112 60.6111 89.2223 29.1666 123.944 18.3888C105.556 35.6666 93.0556 70 93.0001 108.556C92.0525 109.614 90.9904 110.564 89.8334 111.389L128.111 129.833H172.222L210.556 111.5C209.331 110.655 208.212 109.667 207.222 108.556C206.945 70 194.445 35.6666 176.111 18.3888C210.833 29.1666 237.945 60.6111 238.278 97.8333L238.556 98.2777ZM168.945 181.667L218.945 114.667H217.889L173.944 135.5L168.945 181.667ZM131.722 181.667L126.945 135.611L82.5001 114.5H80.9445L131.722 181.667ZM163.5 180.833L168.167 137.611H132.5L137.167 180.833H163.5ZM150 155.833C147.802 155.833 145.654 156.485 143.827 157.706C142 158.927 140.576 160.662 139.735 162.692C138.894 164.723 138.674 166.957 139.102 169.112C139.531 171.267 140.589 173.247 142.143 174.801C143.697 176.355 145.677 177.413 147.832 177.842C149.988 178.271 152.222 178.051 154.252 177.21C156.282 176.369 158.018 174.945 159.239 173.117C160.46 171.29 161.111 169.142 161.111 166.944C161.111 163.998 159.941 161.171 157.857 159.088C155.773 157.004 152.947 155.833 150 155.833Z" fill="#D81E05"/>
</svg>
